<?xml version="1.0" standalone="no"?>
<!DOCTYPE svg PUBLIC "-//W3C//DTD SVG 20010904//EN"
 "http://www.w3.org/TR/2001/REC-SVG-20010904/DTD/svg10.dtd">
<svg version="1.0" xmlns="http://www.w3.org/2000/svg"
 width="796.000000pt" height="236.000000pt" viewBox="0 0 796.000000 236.000000"
 preserveAspectRatio="xMidYMid meet">

<g transform="translate(0.000000,236.000000) scale(0.100000,-0.100000)"
fill="#000000" stroke="none">
<path d="M3650 2119 c-30 -5 -70 -17 -90 -27 -30 -14 -35 -23 -38 -55 -6 -73
56 -232 102 -262 26 -18 96 -12 131 10 29 18 45 74 52 181 8 122 2 140 -45
153 -41 12 -36 12 -112 0z"/>
<path d="M4935 2121 c-46 -9 -57 -41 -50 -143 7 -102 29 -184 53 -197 29 -15
110 -23 130 -12 28 15 80 120 98 198 21 95 12 118 -58 137 -67 18 -134 25
-173 17z"/>
<path d="M742 1874 c-271 -34 -495 -63 -496 -65 -5 -5 -46 -342 -42 -346 1 -1
69 6 152 17 82 11 152 20 155 20 6 0 20 -325 40 -910 6 -179 14 -339 17 -355
l7 -31 145 18 c80 10 150 20 156 22 7 3 13 57 18 143 15 326 57 1072 62 1119
l5 51 157 18 c86 10 161 22 166 26 8 7 -27 268 -42 314 -7 21 -13 20 -500 -41z"/>
<path d="M7115 1919 c-261 -40 -415 -218 -415 -479 0 -210 88 -339 355 -520
193 -130 245 -188 245 -272 0 -45 -34 -96 -75 -114 -82 -34 -236 -7 -367 65
-31 17 -58 31 -61 31 -3 0 -31 -65 -63 -145 -66 -167 -68 -158 38 -211 220
-111 508 -124 691 -32 110 55 191 150 227 265 71 231 -1 456 -196 615 -35 28
-121 90 -191 137 -154 105 -188 143 -188 213 0 43 4 53 32 78 18 16 49 32 70
36 54 10 181 -18 271 -61 41 -19 77 -33 79 -31 10 10 56 304 50 319 -7 18
-140 71 -230 92 -85 19 -200 26 -272 14z"/>
<path d="M3690 1698 c-239 -39 -437 -72 -439 -75 -6 -5 -50 -397 -46 -402 2
-1 76 13 165 34 89 20 164 34 167 32 3 -3 30 -241 60 -529 30 -288 58 -526 62
-529 3 -3 72 -4 154 -1 l147 5 0 64 c0 69 -26 848 -34 999 l-4 92 168 67 169
66 -23 52 c-77 171 -90 197 -100 196 -6 -1 -207 -33 -446 -71z"/>
<path d="M4528 1723 c-11 -26 -36 -81 -54 -122 -19 -41 -34 -75 -34 -76 0 -1
74 -33 165 -70 154 -63 165 -69 165 -94 0 -48 -29 -863 -36 -997 l-6 -131 154
-5 c84 -3 154 -4 156 -2 3 2 88 782 108 997 4 37 10 67 13 67 3 0 49 -14 101
-30 52 -16 98 -30 101 -30 7 0 179 333 179 346 0 5 -53 19 -117 31 -352 65
-831 154 -851 158 -20 5 -26 -1 -44 -42z"/>
<path d="M2669 1666 c-316 -88 -407 -482 -167 -719 35 -35 118 -100 186 -146
134 -91 166 -123 183 -180 15 -50 -3 -89 -51 -114 -66 -35 -226 -5 -373 70
-27 13 -50 23 -51 21 -5 -7 -46 -237 -46 -256 0 -30 101 -95 188 -122 262 -81
530 -23 637 139 63 94 89 239 66 353 -30 145 -116 249 -317 385 -66 45 -135
98 -152 118 -41 46 -43 95 -6 132 24 24 30 25 108 21 69 -4 95 -10 160 -41 43
-20 81 -37 85 -37 11 0 55 310 45 319 -17 15 -96 42 -166 56 -84 18 -265 18
-329 1z"/>
<path d="M1518 1654 c-233 -56 -436 -273 -504 -539 -24 -95 -24 -294 0 -390
40 -159 150 -333 267 -421 123 -93 242 -134 389 -134 303 0 562 216 651 545
31 112 31 297 0 410 -72 269 -263 468 -506 530 -73 18 -220 18 -297 -1z m260
-393 c61 -31 111 -86 146 -160 29 -62 31 -73 31 -181 0 -108 -2 -119 -31 -181
-58 -121 -143 -183 -254 -183 -112 0 -195 59 -253 182 -30 63 -32 74 -32 182
0 104 3 121 27 172 48 104 96 151 187 185 47 17 127 10 179 -16z"/>
<path d="M5910 1654 c-184 -48 -345 -185 -436 -369 -62 -127 -84 -221 -84
-365 0 -144 22 -239 85 -365 72 -145 179 -256 310 -320 94 -47 172 -65 275
-65 179 0 323 62 455 195 209 210 278 529 179 823 -76 228 -273 417 -485 467
-80 18 -227 18 -299 -1z m228 -379 c142 -43 244 -243 213 -421 -26 -147 -109
-258 -216 -290 -104 -30 -188 -3 -268 86 -69 77 -91 142 -91 270 0 128 22 193
91 270 83 92 162 117 271 85z"/>
<path d="M4216 1405 c-93 -36 -146 -91 -146 -154 0 -63 43 -115 125 -153 72
-33 218 -32 292 1 155 69 166 205 23 285 -50 28 -64 31 -155 33 -69 2 -112 -2
-139 -12z"/>
<path d="M7840 1413 c-54 -20 -69 -92 -27 -131 48 -45 137 -10 137 53 0 50
-63 95 -110 78z m72 -30 c38 -34 8 -113 -42 -113 -26 0 -70 43 -70 67 0 10 7
29 16 41 18 27 69 30 96 5z"/>
<path d="M7841 1333 c1 -27 4 -38 6 -25 5 28 19 28 33 1 7 -11 14 -18 17 -15
3 3 0 12 -6 20 -8 10 -9 16 -1 21 5 3 10 15 10 26 0 14 -7 19 -30 19 -29 0
-30 -1 -29 -47z m47 25 c-7 -19 -38 -22 -38 -4 0 10 9 16 21 16 12 0 19 -5 17
-12z"/>
<path d="M4101 978 c0 -13 21 -183 47 -378 l48 -355 146 -3 146 -3 5 33 c4 18
14 96 23 173 9 77 29 232 44 345 14 113 26 206 25 208 -1 1 -26 -13 -54 -32
-63 -43 -107 -56 -187 -56 -77 0 -149 21 -202 60 -41 30 -42 30 -41 8z"/>
</g>
</svg>
